<?xml version="1.0" standalone="no"?>
<!DOCTYPE svg PUBLIC "-//W3C//DTD SVG 20010904//EN"
 "http://www.w3.org/TR/2001/REC-SVG-20010904/DTD/svg10.dtd">
<svg version="1.0" xmlns="http://www.w3.org/2000/svg"
 width="236.000000pt" height="236.000000pt" viewBox="0 0 236.000000 236.000000"
 preserveAspectRatio="xMidYMid meet">
<metadata>
Created by potrace 1.14, written by Peter Selinger 2001-2017
</metadata>
<g transform="translate(0.000000,236.000000) scale(0.100000,-0.100000)"
fill="#000000" stroke="none">
<path d="M210 1180 l0 -490 970 0 970 0 0 490 0 490 -970 0 -970 0 0 -490z
m1920 0 l0 -470 -950 0 -950 0 0 470 0 470 950 0 950 0 0 -470z"/>
<path d="M992 1489 c-47 -9 -96 -40 -113 -71 -15 -28 -13 -101 3 -127 18 -30
81 -57 162 -71 102 -17 126 -32 126 -81 0 -49 -69 -84 -143 -72 -22 3 -61 21
-88 39 l-49 32 -21 -26 -21 -27 33 -27 c62 -52 173 -72 259 -48 20 5 51 26 70
45 31 32 35 42 35 90 0 46 -4 58 -29 84 -33 35 -62 46 -161 61 -86 14 -115 31
-115 69 0 40 31 64 93 69 43 3 62 -1 110 -26 l58 -29 20 28 20 28 -23 15 c-64
42 -154 60 -226 45z"/>
<path d="M730 1325 c0 -177 -7 -207 -52 -239 -12 -9 -42 -16 -66 -16 -43 0
-77 23 -107 72 -9 15 -13 16 -44 3 l-33 -15 25 -42 c68 -116 250 -119 324 -6
28 41 28 44 31 225 l4 183 -41 0 -41 0 0 -165z"/>
<path d="M1321 1186 c41 -106 66 -183 62 -193 -12 -34 -46 -63 -75 -63 -26 0
-28 -3 -28 -36 l0 -37 48 6 c70 8 99 47 196 272 45 105 85 198 89 208 5 14 0
17 -32 17 l-39 0 -53 -125 c-29 -69 -56 -122 -60 -118 -4 5 -27 60 -51 123
l-44 115 -41 3 -41 3 69 -175z"/>
<path d="M1704 1350 c-33 -13 -64 -59 -64 -96 0 -54 33 -82 120 -100 81 -17
100 -27 100 -55 0 -44 -104 -56 -164 -20 l-34 21 -17 -26 c-19 -30 -16 -34 42
-60 42 -18 136 -18 173 1 66 34 88 99 50 148 -22 28 -58 42 -133 53 -45 6 -77
24 -77 44 0 38 99 54 150 25 34 -19 35 -19 54 10 17 26 17 26 -26 45 -45 20
-136 26 -174 10z"/>
</g>
</svg>
